<svg version="1.1" xmlns="http://www.w3.org/2000/svg" viewBox="0 0 1845 660.5" width="1845" height="660.5">
  <!-- svg-source:excalidraw -->
  
  <defs>
    <style class="style-fonts">
      @font-face {
        font-family: "Virgil";
        src: url("https://excalidraw.com/Virgil.woff2");
      }
      @font-face {
        font-family: "Cascadia";
        src: url("https://excalidraw.com/Cascadia.woff2");
      }
    </style>
    
  </defs>
  <rect x="0" y="0" width="1845" height="660.5" fill="#ffffff"></rect><g stroke-linecap="round" transform="translate(310 252.5) rotate(0 73 152)"><path d="M32 0 M32 0 C51.89 0.55, 67.85 0.59, 114 0 M32 0 C62.63 0.09, 94.68 0.93, 114 0 M114 0 C134.84 -0.05, 146.82 8.75, 146 32 M114 0 C134.85 -0.4, 144.15 9.44, 146 32 M146 32 C142.79 99.97, 144.72 163.49, 146 272 M146 32 C144.47 126.01, 145.76 221.47, 146 272 M146 272 C147.46 292.66, 134.76 303.61, 114 304 M146 272 C148.18 291.99, 134.01 302.19, 114 304 M114 304 C91.84 303.85, 66.91 303.49, 32 304 M114 304 C92.32 305.66, 69.46 303.93, 32 304 M32 304 C9.71 304.73, 0.52 292.58, 0 272 M32 304 C10.48 304.09, 1.17 292.44, 0 272 M0 272 C-0.71 206.93, 0.1 140.6, 0 32 M0 272 C0.45 207.92, 0.33 143.86, 0 32 M0 32 C-1.07 10.72, 11.04 1.34, 32 0 M0 32 C0.2 12.21, 9.5 2.29, 32 0" stroke="#1e1e1e" stroke-width="1" fill="none"></path></g><g transform="translate(364.38001251220703 392) rotate(0 18.61998748779297 12.5)"><text x="18.61998748779297" y="0" font-family="Virgil, Segoe UI Emoji" font-size="20px" fill="#1e1e1e" text-anchor="middle" style="white-space: pre;" direction="ltr" dominant-baseline="text-before-edge">API</text></g><g stroke-linecap="round" transform="translate(10 363.5) rotate(0 60.5 53)"><path d="M45.08 1.76 C53.27 -1.15, 64.64 -1.17, 73.95 0.63 C83.26 2.43, 93.75 7.07, 100.93 12.54 C108.11 18.01, 113.63 25.89, 117.04 33.46 C120.44 41.03, 122.35 49.85, 121.35 57.94 C120.35 66.03, 116.47 74.95, 111.04 82.02 C105.61 89.09, 97.05 96.48, 88.77 100.36 C80.49 104.23, 70.52 105.42, 61.37 105.29 C52.22 105.15, 42.23 103.02, 33.88 99.54 C25.54 96.05, 16.91 91.12, 11.31 84.38 C5.71 77.64, 1.65 67.5, 0.29 59.12 C-1.07 50.73, -0.22 41.73, 3.15 34.06 C6.53 26.38, 12.11 18.64, 20.54 13.07 C28.97 7.5, 46.67 2.57, 53.72 0.64 C60.78 -1.29, 62.7 0.68, 62.89 1.47 M49.91 -0.04 C58.62 -1.94, 70.46 -0.36, 79.71 2.18 C88.95 4.72, 98.73 9.09, 105.4 15.21 C112.07 21.32, 117.29 30.73, 119.71 38.88 C122.14 47.04, 121.82 55.96, 119.93 64.12 C118.04 72.28, 114.5 81.68, 108.37 87.85 C102.23 94.02, 91.99 97.92, 83.13 101.14 C74.27 104.35, 64.23 107.88, 55.21 107.15 C46.18 106.41, 36.6 101.19, 28.96 96.75 C21.32 92.31, 14.14 87.62, 9.34 80.5 C4.54 73.37, 0.76 62.12, 0.18 53.98 C-0.41 45.84, 1.77 38.77, 5.83 31.66 C9.88 24.56, 16.92 16.35, 24.49 11.36 C32.05 6.38, 46.97 3.47, 51.21 1.75 C55.46 0.02, 49.88 0.49, 49.94 1.03" stroke="#1e1e1e" stroke-width="1" fill="none"></path></g><g transform="translate(48.380066288506896 404.023340597113) rotate(0 22.33997344970703 12.5)"><text x="22.33997344970703" y="0" font-family="Virgil, Segoe UI Emoji" font-size="20px" fill="#1e1e1e" text-anchor="middle" style="white-space: pre;" direction="ltr" dominant-baseline="text-before-edge">User</text></g><g stroke-linecap="round"><g transform="translate(132.08646005930905 411.2306542859402) rotate(0 88.59233365066552 -0.08859158739340955)"><path d="M-0.74 -0.58 C28.46 -0.87, 146.15 -1.71, 175.8 -1.91 M1.07 1.73 C30.57 1.63, 148.68 -0.15, 177.93 -0.52" stroke="#1e1e1e" stroke-width="1" fill="none"></path></g><g transform="translate(132.08646005930905 411.2306542859402) rotate(0 88.59233365066552 -0.08859158739340955)"><path d="M148.92 8.27 C159.18 7.04, 169.19 3.5, 178.29 -1.65 M149.16 9.77 C155.69 7.42, 162.27 5.99, 178.92 -0.75" stroke="#1e1e1e" stroke-width="1" fill="none"></path></g><g transform="translate(132.08646005930905 411.2306542859402) rotate(0 88.59233365066552 -0.08859158739340955)"><path d="M148.63 -12.24 C158.97 -6.33, 169.08 -2.72, 178.29 -1.65 M148.87 -10.75 C155.5 -8.59, 162.14 -5.52, 178.92 -0.75" stroke="#1e1e1e" stroke-width="1" fill="none"></path></g></g><mask></mask><g stroke-linecap="round" transform="translate(577 162.5) rotate(0 87.5 55)"><path d="M27.5 0 M27.5 0 C57.1 -0.45, 81.6 1.55, 147.5 0 M27.5 0 C75.26 -0.4, 123.94 -0.26, 147.5 0 M147.5 0 C163.93 0.68, 174.17 10.61, 175 27.5 M147.5 0 C165.19 -1, 175.99 10.29, 175 27.5 M175 27.5 C175.51 40.47, 175.88 57.17, 175 82.5 M175 27.5 C175.81 40.33, 175.96 52.95, 175 82.5 M175 82.5 C173.79 99.93, 164.69 111.17, 147.5 110 M175 82.5 C174.64 98.64, 166.16 110.57, 147.5 110 M147.5 110 C116.15 107.02, 83.23 108.46, 27.5 110 M147.5 110 C108.89 110.12, 68.27 109.23, 27.5 110 M27.5 110 C11.04 108.52, -1.11 101.22, 0 82.5 M27.5 110 C7.7 111.53, 0.97 103.11, 0 82.5 M0 82.5 C1.97 68.28, 1.57 55.46, 0 27.5 M0 82.5 C-0.43 62.48, -0.65 43.84, 0 27.5 M0 27.5 C-1.96 10.68, 10.43 -0.75, 27.5 0 M0 27.5 C-1.12 8.55, 7.54 -0.68, 27.5 0" stroke="#1e1e1e" stroke-width="1" fill="none"></path></g><g transform="translate(619.7600555419922 192.5) rotate(0 44.73994445800781 25)"><text x="44.73994445800781" y="0" font-family="Virgil, Segoe UI Emoji" font-size="20px" fill="#1e1e1e" text-anchor="middle" style="white-space: pre;" direction="ltr" dominant-baseline="text-before-edge">Optimize </text><text x="44.73994445800781" y="25" font-family="Virgil, Segoe UI Emoji" font-size="20px" fill="#1e1e1e" text-anchor="middle" style="white-space: pre;" direction="ltr" dominant-baseline="text-before-edge">Schedule</text></g><g stroke-linecap="round" transform="translate(570.5 354.5) rotate(0 88.5 55)"><path d="M27.5 0 M27.5 0 C55.58 -2.09, 81.85 -0.14, 149.5 0 M27.5 0 C54.46 0.39, 81.8 1.19, 149.5 0 M149.5 0 C168.61 0.07, 176.71 10.61, 177 27.5 M149.5 0 C166.05 1.35, 178.9 8.39, 177 27.5 M177 27.5 C176.06 42.74, 175.81 59.02, 177 82.5 M177 27.5 C176.74 40.81, 177.19 53.25, 177 82.5 M177 82.5 C176.75 101.22, 169.36 110.65, 149.5 110 M177 82.5 C177.59 99.7, 169.57 107.7, 149.5 110 M149.5 110 C120.3 111.62, 88.26 110.41, 27.5 110 M149.5 110 C104.26 110.76, 57.32 112.05, 27.5 110 M27.5 110 C8.71 108.01, -1.86 99.82, 0 82.5 M27.5 110 C11.35 111.7, -1.87 102.9, 0 82.5 M0 82.5 C2.28 61.96, 2.38 45.48, 0 27.5 M0 82.5 C-1.02 63.01, -1.22 41.5, 0 27.5 M0 27.5 C-1.11 7.57, 9.79 -0.35, 27.5 0 M0 27.5 C-1.28 7.53, 7.58 0.79, 27.5 0" stroke="#1e1e1e" stroke-width="1" fill="none"></path></g><g transform="translate(577.5500869750977 384.5) rotate(0 81.44991302490234 25)"><text x="81.44991302490234" y="0" font-family="Virgil, Segoe UI Emoji" font-size="20px" fill="#1e1e1e" text-anchor="middle" style="white-space: pre;" direction="ltr" dominant-baseline="text-before-edge">Get </text><text x="81.44991302490234" y="25" font-family="Virgil, Segoe UI Emoji" font-size="20px" fill="#1e1e1e" text-anchor="middle" style="white-space: pre;" direction="ltr" dominant-baseline="text-before-edge">Recommendations</text></g><g stroke-linecap="round" transform="translate(572.5 540.5) rotate(0 86.5 55)"><path d="M27.5 0 M27.5 0 C65.24 -1.41, 100.3 0.42, 145.5 0 M27.5 0 C59.17 -0.32, 91.92 -0.2, 145.5 0 M145.5 0 C165.02 -1.62, 171.71 9.52, 173 27.5 M145.5 0 C164.79 1.35, 173.45 8.29, 173 27.5 M173 27.5 C174.13 40.73, 174.37 56.62, 173 82.5 M173 27.5 C172.24 45.82, 172.42 61.87, 173 82.5 M173 82.5 C173.77 101.71, 165.44 111.03, 145.5 110 M173 82.5 C172.05 101.47, 163.19 109.21, 145.5 110 M145.5 110 C104.33 110.9, 62.94 111.25, 27.5 110 M145.5 110 C98.74 108.63, 51.17 109.77, 27.5 110 M27.5 110 C10.12 108.83, 0 101.41, 0 82.5 M27.5 110 C10.82 108.71, -1.15 99.01, 0 82.5 M0 82.5 C1.73 69.57, -0.71 54.08, 0 27.5 M0 82.5 C0.05 68.66, 0.48 56.88, 0 27.5 M0 27.5 C-0.56 7.39, 10.08 1.7, 27.5 0 M0 27.5 C1 9.98, 8.5 0.08, 27.5 0" stroke="#1e1e1e" stroke-width="1" fill="none"></path></g><g transform="translate(580.4600830078125 558) rotate(0 78.5399169921875 37.5)"><text x="78.5399169921875" y="0" font-family="Virgil, Segoe UI Emoji" font-size="20px" fill="#1e1e1e" text-anchor="middle" style="white-space: pre;" direction="ltr" dominant-baseline="text-before-edge">Update </text><text x="78.5399169921875" y="25" font-family="Virgil, Segoe UI Emoji" font-size="20px" fill="#1e1e1e" text-anchor="middle" style="white-space: pre;" direction="ltr" dominant-baseline="text-before-edge">recommendation </text><text x="78.5399169921875" y="50" font-family="Virgil, Segoe UI Emoji" font-size="20px" fill="#1e1e1e" text-anchor="middle" style="white-space: pre;" direction="ltr" dominant-baseline="text-before-edge">status</text></g><g stroke-linecap="round"><g transform="translate(457 400.5) rotate(0 60.277811973541986 -93.23822515532373)"><path d="M-0.58 1.18 C19.76 -29.97, 101.18 -156.1, 121.13 -187.65 M1.32 0.75 C21.67 -30.18, 100.74 -155.09, 120.78 -186.46" stroke="#1e1e1e" stroke-width="1" fill="none"></path></g><g transform="translate(457 400.5) rotate(0 60.277811973541986 -93.23822515532373)"><path d="M116.27 -155.28 C114.88 -165.22, 115.52 -168.85, 119.07 -187.56 M114.12 -157.54 C117 -166.34, 117.86 -175.26, 121.46 -185.97" stroke="#1e1e1e" stroke-width="1" fill="none"></path></g><g transform="translate(457 400.5) rotate(0 60.277811973541986 -93.23822515532373)"><path d="M98.95 -166.29 C101.42 -173.65, 106 -174.78, 119.07 -187.56 M96.81 -168.55 C105.1 -173.75, 111.35 -179.25, 121.46 -185.97" stroke="#1e1e1e" stroke-width="1" fill="none"></path></g></g><mask></mask><g stroke-linecap="round"><g transform="translate(458.0000000000001 406.91641460697315) rotate(0 56.17864839360112 -1.8039886502076001)"><path d="M-0.29 -1.12 C18.65 -1.5, 94 -2.41, 112.65 -2.65 M1.76 0.9 C20.73 0.19, 94.11 -3.59, 112.3 -4.51" stroke="#1e1e1e" stroke-width="1" fill="none"></path></g><g transform="translate(458.0000000000001 406.91641460697315) rotate(0 56.17864839360112 -1.8039886502076001)"><path d="M82.8 9.08 C91.49 4.91, 97.56 2.01, 112.77 -5.1 M85.33 6.76 C95.08 3.72, 105.81 -1.65, 112.05 -5.24" stroke="#1e1e1e" stroke-width="1" fill="none"></path></g><g transform="translate(458.0000000000001 406.91641460697315) rotate(0 56.17864839360112 -1.8039886502076001)"><path d="M81.76 -11.41 C90.61 -11.17, 96.91 -9.65, 112.77 -5.1 M84.29 -13.73 C94.55 -9.05, 105.68 -6.71, 112.05 -5.24" stroke="#1e1e1e" stroke-width="1" fill="none"></path></g></g><mask></mask><g stroke-linecap="round"><g transform="translate(460 409.5) rotate(0 55.41255959942936 93.81601722104938)"><path d="M-0.89 -0.81 C17.66 30.26, 92.95 155.77, 111.72 186.93 M0.84 1.39 C19.25 32.61, 92.73 157.49, 111.14 188.44" stroke="#1e1e1e" stroke-width="1" fill="none"></path></g><g transform="translate(460 409.5) rotate(0 55.41255959942936 93.81601722104938)"><path d="M86.62 170.59 C95.74 177.16, 102.3 183.67, 109.49 186.77 M87.1 168.53 C93.26 173.72, 97.94 177.04, 110.95 188.57" stroke="#1e1e1e" stroke-width="1" fill="none"></path></g><g transform="translate(460 409.5) rotate(0 55.41255959942936 93.81601722104938)"><path d="M104.29 160.14 C107.5 170.1, 108.12 180.12, 109.49 186.77 M104.77 158.08 C107.3 165.28, 108.43 170.7, 110.95 188.57" stroke="#1e1e1e" stroke-width="1" fill="none"></path></g></g><mask></mask><g stroke-linecap="round" transform="translate(852.5 161.5) rotate(0 87.5 55)"><path d="M27.5 0 M27.5 0 C51.23 -1.05, 78.15 1.68, 147.5 0 M27.5 0 C57.08 1.24, 88.15 -0.04, 147.5 0 M147.5 0 C164 -1.21, 174.33 7.72, 175 27.5 M147.5 0 C164.57 -2.08, 173.45 9.1, 175 27.5 M175 27.5 C173.24 44.38, 173.72 60.31, 175 82.5 M175 27.5 C174.96 47.23, 174.73 67.96, 175 82.5 M175 82.5 C173.71 101.43, 164.19 109.99, 147.5 110 M175 82.5 C175.22 101.29, 164.22 107.71, 147.5 110 M147.5 110 C116.21 109.01, 83.3 109.22, 27.5 110 M147.5 110 C117.41 110.79, 88.02 109.87, 27.5 110 M27.5 110 C9.61 111.82, -2 99.29, 0 82.5 M27.5 110 C10.96 109.32, 0.88 98.73, 0 82.5 M0 82.5 C-0.01 66.39, -1.5 48.15, 0 27.5 M0 82.5 C0.37 71.23, -0.16 58.89, 0 27.5 M0 27.5 C0.56 8.35, 9.48 -0.09, 27.5 0 M0 27.5 C-1.39 8.62, 8.62 0.22, 27.5 0" stroke="#1e1e1e" stroke-width="1" fill="none"></path></g><g transform="translate(869.9758605957031 196.5) rotate(0 70.02413940429688 20)"><text x="70.02413940429688" y="0" font-family="Virgil, Segoe UI Emoji" font-size="16px" fill="#1e1e1e" text-anchor="middle" style="white-space: pre;" direction="ltr" dominant-baseline="text-before-edge">User Inputs</text><text x="70.02413940429688" y="20" font-family="Virgil, Segoe UI Emoji" font-size="16px" fill="#1e1e1e" text-anchor="middle" style="white-space: pre;" direction="ltr" dominant-baseline="text-before-edge">(pool, prices, etc.)</text></g><g stroke-linecap="round" transform="translate(1114.5 161.5) rotate(0 87.5 55)"><path d="M27.5 0 M27.5 0 C66.64 0.65, 105.99 1.59, 147.5 0 M27.5 0 C74.76 1.13, 120.6 0.74, 147.5 0 M147.5 0 C166.02 -1.02, 173.46 9.17, 175 27.5 M147.5 0 C163.59 -2.06, 173.52 7.92, 175 27.5 M175 27.5 C174.91 46.31, 175.05 59.91, 175 82.5 M175 27.5 C176.33 49.82, 175.58 71.76, 175 82.5 M175 82.5 C173.76 102.67, 167.65 111.68, 147.5 110 M175 82.5 C174.25 100.45, 166.89 109.7, 147.5 110 M147.5 110 C122.51 108.01, 98.42 110.06, 27.5 110 M147.5 110 C110.41 111.18, 73.64 111.23, 27.5 110 M27.5 110 C10.3 110.9, -0.22 98.9, 0 82.5 M27.5 110 C7.8 110.42, 1.14 101.99, 0 82.5 M0 82.5 C-0.1 61.39, 0.3 42.87, 0 27.5 M0 82.5 C-0.36 69.48, -0.71 55.2, 0 27.5 M0 27.5 C1.27 10.24, 9.55 0.89, 27.5 0 M0 27.5 C-0.34 8.89, 7.5 -1.42, 27.5 0" stroke="#1e1e1e" stroke-width="1" fill="none"></path></g><g transform="translate(1120.8800964355469 191.5) rotate(0 81.11990356445312 25)"><text x="81.11990356445312" y="0" font-family="Virgil, Segoe UI Emoji" font-size="20px" fill="#1e1e1e" text-anchor="middle" style="white-space: pre;" direction="ltr" dominant-baseline="text-before-edge">Run Optimization</text><text x="81.11990356445312" y="25" font-family="Virgil, Segoe UI Emoji" font-size="20px" fill="#1e1e1e" text-anchor="middle" style="white-space: pre;" direction="ltr" dominant-baseline="text-before-edge">Algorithm</text></g><g stroke-linecap="round" transform="translate(1379.5 164.5) rotate(0 86 54.5)"><path d="M27.25 0 M27.25 0 C53.86 1.19, 76.46 -0.54, 144.75 0 M27.25 0 C63.98 0.46, 99.22 -0.08, 144.75 0 M144.75 0 C161.88 -1.11, 172.01 8.25, 172 27.25 M144.75 0 C164.54 1.62, 171.59 9.18, 172 27.25 M172 27.25 C172.57 44.22, 171.02 58.63, 172 81.75 M172 27.25 C170.8 42.08, 171.34 57.82, 172 81.75 M172 81.75 C172.06 98.92, 162.77 107.56, 144.75 109 M172 81.75 C171.44 99.7, 163.51 109.89, 144.75 109 M144.75 109 C106.14 109.74, 63.84 109.01, 27.25 109 M144.75 109 C109.93 110.05, 76.13 110.23, 27.25 109 M27.25 109 C9.82 109.5, 0.47 98.58, 0 81.75 M27.25 109 C8.77 107, -0.42 100.21, 0 81.75 M0 81.75 C1.05 61.15, 2.15 41.74, 0 27.25 M0 81.75 C-0.04 67.16, -0.94 53.24, 0 27.25 M0 27.25 C0.3 10.95, 8.43 -0.21, 27.25 0 M0 27.25 C-1.55 9.13, 10.9 2.16, 27.25 0" stroke="#1e1e1e" stroke-width="1" fill="none"></path></g><g transform="translate(1391.5078353881836 189) rotate(0 73.9921646118164 30)"><text x="73.9921646118164" y="0" font-family="Virgil, Segoe UI Emoji" font-size="16px" fill="#1e1e1e" text-anchor="middle" style="white-space: pre;" direction="ltr" dominant-baseline="text-before-edge">User outputs</text><text x="73.9921646118164" y="20" font-family="Virgil, Segoe UI Emoji" font-size="16px" fill="#1e1e1e" text-anchor="middle" style="white-space: pre;" direction="ltr" dominant-baseline="text-before-edge">(New start times, </text><text x="73.9921646118164" y="40" font-family="Virgil, Segoe UI Emoji" font-size="16px" fill="#1e1e1e" text-anchor="middle" style="white-space: pre;" direction="ltr" dominant-baseline="text-before-edge">notification, etc.)</text></g><g stroke-linecap="round"><g transform="translate(753 221.5) rotate(0 49.46399093493346 -0.8174360071124624)"><path d="M0.85 -0.32 C17.54 -0.71, 82.89 -1.09, 99.09 -1.4 M-0.16 -1.53 C16.55 -1.83, 82.47 -0.08, 98.72 -0.07" stroke="#1e1e1e" stroke-width="1" fill="none"></path></g><g transform="translate(753 221.5) rotate(0 49.46399093493346 -0.8174360071124624)"><path d="M69.85 11.59 C75.7 7.56, 80.45 3.37, 99.23 0.83 M69.81 9.33 C78.16 7.35, 87.15 4.16, 98.66 -0.85" stroke="#1e1e1e" stroke-width="1" fill="none"></path></g><g transform="translate(753 221.5) rotate(0 49.46399093493346 -0.8174360071124624)"><path d="M70.16 -8.93 C76.1 -8.56, 80.79 -8.36, 99.23 0.83 M70.11 -11.19 C78.38 -7.43, 87.28 -4.87, 98.66 -0.85" stroke="#1e1e1e" stroke-width="1" fill="none"></path></g></g><mask></mask><g stroke-linecap="round"><g transform="translate(1029 216.5) rotate(0 42.24405059292917 0.6532293075183304)"><path d="M-0.66 0.04 C13.46 0.25, 71.08 1.92, 85.15 2.29 M1.19 -0.99 C15.22 -0.64, 71.19 -0.46, 84.81 0.33" stroke="#1e1e1e" stroke-width="1" fill="none"></path></g><g transform="translate(1029 216.5) rotate(0 42.24405059292917 0.6532293075183304)"><path d="M56.42 11.76 C66.28 6.41, 75.77 2.29, 84.98 -1.33 M56.77 9.83 C67.13 6.52, 76.99 2.22, 84.79 0.92" stroke="#1e1e1e" stroke-width="1" fill="none"></path></g><g transform="translate(1029 216.5) rotate(0 42.24405059292917 0.6532293075183304)"><path d="M56.96 -8.76 C66.82 -7.24, 76.13 -4.5, 84.98 -1.33 M57.31 -10.68 C67.28 -6.76, 76.95 -3.83, 84.79 0.92" stroke="#1e1e1e" stroke-width="1" fill="none"></path></g></g><mask></mask><g stroke-linecap="round"><g transform="translate(1292 216.5) rotate(0 41.92726184233561 0.25153644196186065)"><path d="M0.84 0.76 C14.75 0.81, 70.08 -0.43, 84.03 -0.42 M-0.17 0.12 C13.53 0.39, 69.06 1.1, 83.09 0.89" stroke="#1e1e1e" stroke-width="1" fill="none"></path></g><g transform="translate(1292 216.5) rotate(0 41.92726184233561 0.25153644196186065)"><path d="M56.16 11.16 C64.03 8.25, 75.86 2.94, 85.05 0.42 M54.85 11.69 C64.79 6.72, 76.78 3.14, 83.37 -0.01" stroke="#1e1e1e" stroke-width="1" fill="none"></path></g><g transform="translate(1292 216.5) rotate(0 41.92726184233561 0.25153644196186065)"><path d="M56.18 -9.36 C63.92 -5.15, 75.75 -3.34, 85.05 0.42 M54.87 -8.83 C64.68 -6.11, 76.67 -1.99, 83.37 -0.01" stroke="#1e1e1e" stroke-width="1" fill="none"></path></g></g><mask></mask><g stroke-linecap="round" transform="translate(1690 350.5) rotate(0 72.5 52.5)"><path d="M94.72 3.09 C105.08 4.94, 115.41 10.83, 123.37 16.59 C131.33 22.36, 139.02 30.22, 142.47 37.67 C145.92 45.13, 146.41 53.44, 144.06 61.35 C141.71 69.25, 135.42 78.42, 128.37 85.1 C121.32 91.78, 111.87 98.24, 101.77 101.41 C91.68 104.57, 78.84 104.93, 67.79 104.09 C56.75 103.25, 45.22 100.34, 35.51 96.35 C25.81 92.35, 15.45 87.03, 9.58 80.13 C3.71 73.24, 0.87 63.3, 0.28 54.97 C-0.3 46.65, 1.31 37.55, 6.08 30.21 C10.84 22.86, 19.86 15.64, 28.89 10.9 C37.91 6.16, 47.44 2.46, 60.24 1.77 C73.04 1.07, 96.32 4.97, 105.68 6.73 C115.04 8.5, 116.88 11.63, 116.41 12.35 M105.45 4.93 C115.86 7.59, 125.56 14.29, 132.05 20.77 C138.55 27.26, 142.89 35.42, 144.43 43.82 C145.96 52.23, 145.14 63.61, 141.28 71.23 C137.42 78.84, 129.72 84.27, 121.28 89.51 C112.85 94.74, 101.22 100.41, 90.68 102.62 C80.14 104.83, 68.91 104.57, 58.06 102.76 C47.2 100.94, 34.09 96.9, 25.55 91.72 C17 86.53, 11.03 79.07, 6.78 71.66 C2.53 64.24, -0.99 55.13, 0.04 47.22 C1.07 39.3, 6.8 30.74, 12.97 24.19 C19.14 17.64, 27.38 12.15, 37.08 7.92 C46.77 3.68, 60.1 -0.9, 71.14 -1.21 C82.18 -1.53, 98.09 4.51, 103.31 6.02 C108.53 7.53, 102.55 7.02, 102.47 7.83" stroke="#1e1e1e" stroke-width="1" fill="none"></path></g><g transform="translate(1723.182664858116 392.87689398770624) rotate(0 39.552093505859375 10)"><text x="39.552093505859375" y="0" font-family="Virgil, Segoe UI Emoji" font-size="16px" fill="#1e1e1e" text-anchor="middle" style="white-space: pre;" direction="ltr" dominant-baseline="text-before-edge">Database</text></g><g mask="url(#mask-muPeyrwTIrrzuFxfn8pzJ)" stroke-linecap="round"><g transform="translate(1546 268.5) rotate(0 77.20390468245773 51.11111609827003)"><path d="M0.32 0.28 C26.1 17.16, 129.62 84.73, 155.38 101.48 M-0.97 -0.61 C24.62 16.42, 128.82 85.81, 154.65 102.84" stroke="#1e1e1e" stroke-width="1" fill="none"></path></g><g transform="translate(1546 268.5) rotate(0 77.20390468245773 51.11111609827003)"><path d="M125.96 96.51 C135.43 98.09, 144.76 101.61, 155.12 104.57 M126.43 96.32 C133.17 98.68, 141.75 99.86, 154.67 102.14" stroke="#1e1e1e" stroke-width="1" fill="none"></path></g><g transform="translate(1546 268.5) rotate(0 77.20390468245773 51.11111609827003)"><path d="M137.3 79.41 C142.71 87.18, 147.95 96.87, 155.12 104.57 M137.77 79.22 C141.07 86.53, 146.34 92.69, 154.67 102.14" stroke="#1e1e1e" stroke-width="1" fill="none"></path></g></g><mask id="mask-muPeyrwTIrrzuFxfn8pzJ"><rect x="0" y="0" fill="#fff" width="1800.9525427470903" height="470.33473174382414"></rect><rect x="1541.8841006582134" y="309.4173658719121" fill="#000" width="163.18434143066406" height="20" opacity="1"></rect></mask><g transform="translate(1541.8841006582134 309.4173658719121) rotate(0 81.3198040242446 10.193750226357963)"><text x="81.59217071533203" y="0" font-family="Virgil, Segoe UI Emoji" font-size="16px" fill="#1e1e1e" text-anchor="middle" style="white-space: pre;" direction="ltr" dominant-baseline="text-before-edge">Save recommendation</text></g><g stroke-linecap="round"><g transform="translate(749.5 405.8113813488005) rotate(0 469.7133238867059 -0.5731404627066468)"><path d="M0.65 0.57 C157.19 0.44, 783.6 0.27, 939.9 0.14 M-0.47 -0.18 C155.9 -0.74, 782.28 -1.91, 939.17 -1.68" stroke="#1e1e1e" stroke-width="1" fill="none"></path></g><g transform="translate(749.5 405.8113813488005) rotate(0 469.7133238867059 -0.5731404627066468)"><path d="M911.92 9.26 C921.75 3.11, 931.03 2.47, 939.82 -0.23 M911.63 8.24 C920.44 4.59, 930.35 1.82, 939.48 -1.84" stroke="#1e1e1e" stroke-width="1" fill="none"></path></g><g transform="translate(749.5 405.8113813488005) rotate(0 469.7133238867059 -0.5731404627066468)"><path d="M911.91 -11.26 C921.9 -10.2, 931.18 -3.63, 939.82 -0.23 M911.62 -12.28 C920.32 -9.03, 930.23 -4.89, 939.48 -1.84" stroke="#1e1e1e" stroke-width="1" fill="none"></path></g></g><mask></mask><g transform="translate(1168 407.5) rotate(0 4.864013671875 10)"><text x="0" y="0" font-family="Virgil, Segoe UI Emoji" font-size="16px" fill="#ffffff" text-anchor="start" style="white-space: pre;" direction="ltr" dominant-baseline="text-before-edge">S</text></g><g transform="translate(1160 382.5) rotate(0 24.25605010986328 10)"><text x="0" y="0" font-family="Virgil, Segoe UI Emoji" font-size="16px" fill="#1e1e1e" text-anchor="start" style="white-space: pre;" direction="ltr" dominant-baseline="text-before-edge">Select</text></g><g stroke-linecap="round"><g transform="translate(748 600.5) rotate(0 480.56803560331 -79.88024159922264)"><path d="M0.34 -0.79 C160.64 -27.41, 801.65 -133.02, 962.08 -159.37 M-0.94 1.41 C159.18 -25.6, 800.58 -134.14, 961.17 -161.17" stroke="#1e1e1e" stroke-width="1" fill="none"></path></g><g transform="translate(748 600.5) rotate(0 480.56803560331 -79.88024159922264)"><path d="M933.76 -146.23 C944.55 -149.74, 953.75 -154.77, 961.11 -160.39 M935.9 -145.63 C941.15 -150.5, 947.97 -153.89, 961.87 -160.2" stroke="#1e1e1e" stroke-width="1" fill="none"></path></g><g transform="translate(748 600.5) rotate(0 480.56803560331 -79.88024159922264)"><path d="M930.35 -166.46 C942.31 -163.42, 952.61 -161.87, 961.11 -160.39 M932.49 -165.86 C938.67 -165.37, 946.4 -163.4, 961.87 -160.2" stroke="#1e1e1e" stroke-width="1" fill="none"></path></g></g><mask></mask><g transform="translate(1160 506.5) rotate(350.3518442219419 28.4400634765625 10)"><text x="0" y="0" font-family="Virgil, Segoe UI Emoji" font-size="16px" fill="#1e1e1e" text-anchor="start" style="white-space: pre;" direction="ltr" dominant-baseline="text-before-edge">Update</text></g><g transform="translate(668 10) rotate(0 243.93609619140625 22.5)"><text x="0" y="0" font-family="Virgil, Segoe UI Emoji" font-size="36px" fill="#f08c00" text-anchor="start" style="white-space: pre;" direction="ltr" dominant-baseline="text-before-edge">Energy Manager API Design</text></g></svg>